<?xml version="1.0" encoding="utf-8"?>
<!-- Generator: Adobe Illustrator 25.0.1, SVG Export Plug-In . SVG Version: 6.00 Build 0)  -->
<svg version="1.1" id="Layer_1" xmlns="http://www.w3.org/2000/svg" xmlns:xlink="http://www.w3.org/1999/xlink" x="0px" y="0px"
	 viewBox="0 0 87.9 72.3" style="enable-background:new 0 0 87.9 72.3;" xml:space="preserve">
<style type="text/css">
	.st0{fill-rule:evenodd;clip-rule:evenodd;}
</style>
<path class="st0" d="M54.6,43.3c0.6,3.3-4.3,7.7-11.4,12.1v0.2l2.3,7.6c0.5,1.7-0.2,3.8-1.8,4.9l-0.9,0.7c-0.6,0.3-1.4,0.2-1.8-0.1
	l-8.6-7.2h-0.2C21.1,67.3,9.5,71.8,7.7,72.1c-2.1,0.4-4.3,0.3-4.6-1.4c-0.1-0.8,0.3-1.7,1.5-3l-4.3-5.3c-0.5-0.7-0.5-1.7,0.4-2.3
	l0.6-0.3c0.9-0.6,2.1-0.7,3.1-0.3l6.5,2.1c2.1-1.7,4.4-3.5,7.1-5.6L5.1,50.4C4,50,3.8,48.6,4.7,47.9l0.9-0.7
	c1.4-1.2,3.3-1.7,5.1-1.7l20.2,1.8c5.6-3.3,10.8-5.8,14.1-6.4l2.5-0.4l-5.3,3.7l0.1,2l8.2-5.8C53,40.6,54.3,41.4,54.6,43.3
	L54.6,43.3z"/>
<path d="M73.8,5.9C59-4.5,38.5-0.8,28.2,14c-6.5,9.3-7.5,20.8-3.7,30.7l6,0.5c2-1.2,4.2-2.4,6.5-3.5c-0.1-0.2-0.3-0.3-0.4-0.4
	c-0.5-0.1-1.1-1.3-1.4-2l-1.5-4c-0.3-0.7-0.3-1.7,0.1-2.2c0.4-0.5,0.5-1.4,0.2-2.1c-0.3-0.7-0.4-2-0.7-2.6c-0.3-0.7-0.4-2-0.5-2.6
	l-0.5-2.9l-0.4-2.3c-0.2-0.9-0.6-1.7-1.1-2c-0.3-0.2-0.4-0.5-0.4-0.8c0.3-0.5,0.6-1,1-1.5c0.1-0.2,0.3-0.4,0.4-0.6
	c0.4-0.1,0.8,0.1,1.1,0.6l0.6,1.2c0.5,0.4,1.3,1.1,1.8,1.5s0.6-0.3,0.5-1.1L35,13c0-0.3-0.1-0.5-0.1-0.8c1.3-1.3,2.7-2.4,4.1-3.4
	c0,0.1-0.1,0.3-0.2,0.4l-0.5,0.7C37.8,10.6,38,11,38.8,11c0.7,0,1.7-0.6,2-1.1c0.4-0.5,0.9-0.6,1.4-0.3c0.5,0.4,1.1,0.3,1.4-0.3
	c0.4-0.5,1.2-0.9,2-1.1l2.3-0.4c0.9-0.2,1.5,0.3,1.8,1s0,1.5,0.5,1.8s1.1,0.3,1.4-0.3c0.4-0.5,0.5-1.4,0.2-2.1s0.4-0.9,1.1-0.5
	l0.6,0.4c0.7,0.5,1.9,0.6,2.7,0.2l0.9-0.6c0.8-0.4,1.2-1.4,1.1-1.9s-0.8-1.3-1.7-1.2c-0.9,0.2-1.8,0-2.1-0.2c-0.2-0.1-0.1-0.3,0-0.5
	c1.6,0,3.2,0.1,4.8,0.4c0.2,0.9,0.6,1.7,0.9,1.9c0.3,0.2,1.4,0.5,2.1,0.2s1.6-0.6,1.9-0.9c0.5,0.2,1,0.4,1.5,0.6
	c-0.1,0.2-0.4,0.4-0.8,0.6l-1.1,0.5c-0.8,0.4-1.6,1.1-1.8,1.5c-0.2,0.3-0.3,1.1,0.3,1.4c0.5,0.4,1.4,0.5,2.1,0.2
	c0.7-0.3,2.2-0.3,2.8-0.1l1.2,0.1c1.2,0.1,2.2-0.2,2.4-0.6L71.2,9c2.9,2,5.3,4.6,7.2,7.3l-1.3-0.9c-0.3-0.2-0.7,0-0.6,0.8
	c0.2,0.9,0,1.8-0.2,2.1c-0.2,0.3-0.3,1.1,0.3,1.4c0.5,0.4,0.2,1.1-0.2,1.8l-0.2,1.1c-0.5,0.7-0.9,0.6-1.2-0.1
	c-0.3-0.7-0.3-2-0.6-2.7c-0.3-0.7-0.6-1.7-1.1-2c-0.5-0.4-1.1-0.3-1.4,0.3l-1.1,1.5c-0.2,0.3-0.3,1.1,0.3,1.4l1.5,1.1
	c0.3,0.2,0.6,0.9,0.3,1.4c-0.4,0.5-0.5,1.4-0.2,2.1c0.3,0.7-0.3,1.5-1.1,1.5c-0.7,0-1.8,0-2.1-0.2c-0.3-0.2-0.9-0.1-1.3,0.4
	s-0.5,1.4-0.2,2.1c0.3,0.7,0.9,1.2,1.8,1l2.4-0.6c0.9-0.2,1.7-0.6,2-1.1c0.4-0.5,0.9-0.6,1.4-0.3s1.1,1.3,1.4,2l0.5,1.1
	c0.4,0.8,0.5,1.9,0.3,2.2s0.1,0.6,0.8,0.6s1-0.8,0.6-1.6l-0.7-1.2c-0.4-0.8-0.5-1.1,0.1-0.7c0.5,0.4,0.9,1.2,1.1,2
	c0.2,0.9,0.8,1.3,1.5,1s1.2,0.1,0.8,0.6c-0.4,0.5-0.3,1.1,0.3,1.4c0.5,0.4,1,1.2,0.9,1.9c0,0.7-0.5,1.4-1.2,1.7s-1.8,0-2.2-0.5
	c-0.4-0.5-1.4-0.5-2.1-0.2s-1.7,0-2.1-0.2c-0.3-0.2-0.6-0.9-0.3-1.4c0.4-0.5-0.1-1.1-0.8-1.4l-4.6-1.6c-0.8-0.3-2-0.4-2.7-0.4
	s-2,0.4-2.6,0.5l-2.5,0.4c-0.6,0.1-1.7,0.6-1.9,0.9c-0.2,0.3-1.2,1-1.9,0.9s-1.3,0.8-1.1,1.5c0.3,0.7-0.1,1.9-0.6,2.6L56.2,41
	c-0.1,0.1-0.1,0.3-0.2,0.4c0.2,0.5,0.4,1,0.5,1.6l0,0c0.2,1.1,0,2.2-0.5,3.4l0.4,2.5c0.2,0.9,0.8,1.3,1.7,1.2c0.9-0.2,1.8,0,2.1,0.2
	c0.3,0.2,1.4,0.5,2.1,0.2s1.7,0.4,2.1,1.2l0.5,1.1c0.4,0.8,0.6,1.7,0.3,2.2l-1.9,2.7c-0.5,0.7-1.4,1.6-2.2,2L60,60.2
	c-0.5,0.3-0.9,0.7-1.3,1.1c-4,0.5-8.1,0.2-12-1l0.7,2.3c0.2,0.7,0.3,1.4,0.2,2.2c12.6,2.9,26.3-1.9,34.2-13.2
	C92.3,36.8,88.7,16.3,73.8,5.9z"/>
</svg>
